HIERARCHY
ROOT root
{
	OFFSET 0.000000 0.000000 0.000000
	CHANNELS 6 Xposition Yposition Zposition Zrotation Yrotation Xrotation
	JOINT lhip
	{
		OFFSET 0.058581 -0.082280 -0.017664
		CHANNELS 3 Zrotation Yrotation Xrotation
		JOINT lknee
		{
			OFFSET 0.043451 -0.386469 0.008037
			CHANNELS 3 Zrotation Yrotation Xrotation
			JOINT lankle
			{
				OFFSET -0.014790 -0.426874 -0.037428
				CHANNELS 3 Zrotation Yrotation Xrotation
				JOINT ltoe
				{
					OFFSET 0.041054 -0.060286 0.122042
					CHANNELS 3 Zrotation Yrotation Xrotation
					End Site
					{
						OFFSET 0.000000 0.000000 0.000000
					}
				}
			}
		}
	}
	JOINT rhip
	{
		OFFSET -0.060310 -0.090513 -0.013543
		CHANNELS 3 Zrotation Yrotation Xrotation
		JOINT rknee
		{
			OFFSET -0.043257 -0.383688 -0.004843
			CHANNELS 3 Zrotation Yrotation Xrotation
			JOINT rankle
			{
				OFFSET 0.019056 -0.420046 -0.034562
				CHANNELS 3 Zrotation Yrotation Xrotation
				JOINT rtoe
				{
					OFFSET -0.034840 -0.062106 0.130323
					CHANNELS 3 Zrotation Yrotation Xrotation
					End Site
					{
						OFFSET 0.000000 0.000000 0.000000
					}
				}
			}
		}
	}
	JOINT lowerback
	{
		OFFSET 0.004439 0.124404 -0.038385
		CHANNELS 3 Zrotation Yrotation Xrotation
		JOINT upperback
		{
			OFFSET 0.004488 0.137956 0.026820
			CHANNELS 3 Zrotation Yrotation Xrotation
			JOINT chest
			{
				OFFSET -0.002265 0.056032 0.002855
				CHANNELS 3 Zrotation Yrotation Xrotation
				JOINT lowerneck
				{
					OFFSET -0.013390 0.211636 -0.033468
					CHANNELS 3 Zrotation Yrotation Xrotation
					JOINT upperneck
					{
						OFFSET 0.010113 0.088937 0.050410
						CHANNELS 3 Zrotation Yrotation Xrotation
						End Site
						{
							OFFSET 0.000000 0.000000 0.000000
						}
					}
				}
				JOINT lclavicle
				{
					OFFSET 0.071702 0.114000 -0.018898
					CHANNELS 3 Zrotation Yrotation Xrotation
					JOINT lshoulder
					{
						OFFSET 0.122921 0.045205 -0.019046
						CHANNELS 3 Zrotation Yrotation Xrotation
						JOINT lelbow
						{
							OFFSET 0.255332 -0.015649 -0.022946
							CHANNELS 3 Zrotation Yrotation Xrotation
							JOINT lwrist
							{
								OFFSET 0.265709 0.012698 -0.007375
								CHANNELS 3 Zrotation Yrotation Xrotation
								End Site
								{
									OFFSET 0.000000 0.000000 0.000000
								}
							}
						}
					}
				}
				JOINT rclavicle
				{
					OFFSET -0.082954 0.112472 -0.023707
					CHANNELS 3 Zrotation Yrotation Xrotation
					JOINT rshoulder
					{
						OFFSET -0.113228 0.046853 -0.008472
						CHANNELS 3 Zrotation Yrotation Xrotation
						JOINT relbow
						{
							OFFSET -0.260127 -0.014369 -0.031269
							CHANNELS 3 Zrotation Yrotation Xrotation
							JOINT rwrist
							{
								OFFSET -0.269108 0.006794 -0.006027
								CHANNELS 3 Zrotation Yrotation Xrotation
								End Site
								{
									OFFSET 0.000000 0.000000 0.000000
								}
							}
						}
					}
				}
			}
		}
	}
}
MOTION
Frames: 7
Frame Time: 0.033333
0.177896 1.372340 0.727344 -3.977413 -1.395694 60.232446 13.083532 2.790275 -36.977947 -2.695909 5.469980 56.546264 -6.182193 -3.529947 -0.102093 0.000000 -0.000000 0.000000 -9.193716 -2.741839 -40.679479 -4.031693 -6.064438 59.249620 1.129662 -1.753942 3.748778 0.000000 -0.000000 0.000000 -2.092815 0.576229 53.036861 -1.776574 -2.327641 20.435972 0.691486 -0.538932 -6.575202 -13.125605 15.150758 1.863033 -3.643964 16.416100 11.985308 -37.191397 -20.619661 9.171640 -36.425258 -11.943867 3.951690 80.560403 -72.622871 -66.637100 11.898417 -26.962249 2.595256 37.445573 28.000185 18.596848 30.136909 21.588800 2.389038 -55.261019 66.726099 -44.667886 7.383166 23.629313 21.603299 
0.178826 1.372206 0.726778 -3.871450 -1.200069 60.503337 13.131297 2.598367 -37.415198 -2.480516 5.497929 56.710242 -5.916618 -3.661691 -0.107472 0.000000 -0.000000 0.000000 -9.479706 -3.075252 -41.024340 -3.970163 -6.733617 59.345101 0.886477 -1.573035 3.949776 0.000000 -0.000000 0.000000 -1.579171 0.301750 52.742477 -1.869006 -2.456589 20.386694 0.464241 -0.785725 -6.346689 -13.095228 15.007722 1.852202 -3.515503 15.959364 11.673260 -37.167378 -20.500326 8.986995 -36.583652 -11.764619 4.002404 80.614044 -72.540790 -65.782467 9.930463 -27.093429 2.609661 37.250187 27.769804 18.015201 30.775736 21.560866 2.662396 -55.293081 66.928732 -44.206189 7.687980 23.793801 21.421699 
0.178874 1.372298 0.727356 -4.090398 -1.119659 60.365112 13.240912 2.685279 -37.208524 -2.269159 5.349573 56.779700 -6.097909 -4.013177 -0.131849 0.000000 -0.000000 0.000000 -9.300967 -2.945521 -40.733604 -3.976972 -6.731351 59.081591 0.953674 -1.437392 3.992893 0.000000 -0.000000 0.000000 -1.651011 0.404633 53.197676 -1.937222 -2.308262 20.233945 0.465849 -0.558170 -6.449806 -12.622839 14.743920 1.750275 -3.438252 15.440430 12.242889 -36.908266 -20.415226 8.587263 -37.164419 -11.899442 4.247714 80.158693 -72.716433 -65.241297 9.530481 -27.272658 3.142572 37.150848 27.680467 18.017057 31.296370 21.545203 2.612649 -56.175277 66.786470 -45.006359 7.598407 24.004127 21.646640 
0.177441 1.371469 0.727598 -4.392962 -1.084223 60.373244 13.502397 3.212615 -37.044603 -2.358634 5.267018 56.674324 -6.256138 -4.216914 -0.001838 0.000000 -0.000000 0.000000 -8.893686 -2.845092 -40.773874 -4.208273 -6.708040 59.154716 0.824839 -1.177506 3.912065 0.000000 -0.000000 0.000000 -2.106377 1.231597 53.097912 -1.517340 -1.978406 20.334676 0.714548 -0.295586 -6.620642 -11.701778 14.759813 2.319286 -3.129626 14.199579 12.480321 -36.833820 -20.318269 8.462562 -37.552004 -12.323543 4.617038 79.489321 -73.020876 -64.309048 9.629456 -26.863113 3.580371 37.459528 27.292264 18.255207 30.981695 21.472900 2.133747 -56.637237 66.889733 -44.940955 7.521576 23.706685 21.005210 
0.176928 1.370995 0.727400 -4.540924 -0.993153 60.491702 13.745487 3.310410 -37.073042 -2.264530 5.496878 56.573639 -6.368501 -4.211007 0.025303 0.000000 -0.000000 0.000000 -8.696422 -2.748536 -40.944850 -4.267962 -6.756402 59.199881 0.854133 -1.152649 3.873712 0.000000 -0.000000 0.000000 -2.220612 1.315812 52.710625 -1.583095 -1.778367 20.527296 0.616934 0.014383 -6.566271 -11.059300 14.732102 3.358542 -3.011479 14.528895 12.247919 -36.853458 -20.214330 7.990685 -37.529606 -12.642666 4.767675 77.259831 -73.257913 -62.019824 9.694667 -27.413369 3.492254 37.646827 27.162455 18.388274 30.920735 21.335081 2.121149 -57.129387 66.460016 -45.066655 7.124408 23.914326 21.445371 
0.177244 1.370555 0.727492 -4.176312 -0.985045 60.374015 13.446642 2.981565 -37.005934 -2.312706 5.254269 56.530085 -6.229573 -4.219473 0.036339 0.000000 -0.000000 0.000000 -8.996323 -3.133062 -40.704780 -4.276391 -6.950651 59.187386 0.977668 -1.134811 3.705829 0.000000 -0.000000 0.000000 -2.040627 1.429002 52.730553 -1.571245 -1.901104 20.657833 0.580998 0.189704 -6.768672 -10.516368 14.748210 4.317991 -2.699475 14.666809 12.345602 -36.704423 -20.476788 7.787263 -37.741831 -12.875479 4.986326 75.487798 -73.417696 -60.493592 9.529373 -26.966597 3.350077 37.748654 27.060491 18.885840 30.253365 20.768470 1.563589 -57.939822 66.649839 -45.937494 6.816811 23.669049 21.119084 
0.176520 1.370537 0.726891 -4.227847 -0.994039 60.501552 13.679450 3.116526 -37.079540 -2.489660 5.536057 56.465505 -6.221236 -4.271469 0.082015 0.000000 -0.000000 0.000000 -8.914745 -2.843795 -40.931662 -4.310906 -6.919925 59.320736 0.747903 -1.355563 3.668658 0.000000 -0.000000 0.000000 -2.044126 1.699452 52.275753 -1.463581 -1.657983 20.775330 0.390428 0.465577 -6.800634 -9.613144 15.736971 5.333794 -2.461734 14.772215 13.040707 -36.703397 -20.662414 7.677943 -37.638954 -13.137694 5.355719 71.873520 -73.536962 -56.782389 10.382124 -27.901934 3.253151 38.055481 26.579897 18.962426 29.889423 20.789228 1.373334 -57.704705 66.506642 -45.284080 6.528999 24.076228 20.341286 
